<?xml version="1.0"?>
<svg xmlns="http://www.w3.org/2000/svg" xmlns:xlink="http://www.w3.org/1999/xlink" version="1.1" viewBox="0 0 171 171" width="50px" height="50px"><g fill="none" fill-rule="nonzero" stroke="none" stroke-width="1" stroke-linecap="butt" stroke-linejoin="miter" stroke-miterlimit="10" stroke-dasharray="" stroke-dashoffset="0" font-family="none" font-weight="none" font-size="none" text-anchor="none" style="mix-blend-mode: normal"><path d="M0,171.99654v-171.99654h171.99654v171.99654z" fill="none"/><g fill="#ecf0f1"><g id="surface1"><path d="M44.72719,13.68l-40.79953,71.82l40.79953,71.82h81.54562l40.78617,-71.82l-40.78617,-71.82zM59.72977,30.78h46.77117l-35.04164,12.27727zM118.61789,34.42711l12.23719,21.52195l-23.60602,24.51445l-16.33852,-17.08664zM51.3,36.3375v13.78688l-9.77906,3.42zM105.31195,38.43492l-19.13063,19.99899l-9.52523,-9.95274zM58.14,39.00938l6.23883,6.51937l-6.23883,2.19094zM69.57563,50.96602l11.87648,12.41086l-16.21828,16.95305l-7.09383,-7.28086v-18.07523zM51.3,57.36516v8.64351l-6.26555,-6.43922zM37.13906,61.25273l14.16094,14.57508v19.06383l-14.1743,14.81555l-13.76016,-24.20719zM135.74461,64.59258l11.88985,20.90742l-13.23914,23.31211l-6.01172,-6.26555zM86.19469,68.3332l16.3118,17.05992l-16.09805,16.72594l-16.40531,-16.87289zM127.96945,68.81414l-5.38383,27.68062l-10.59398,-11.10164zM58.14,82.8682l2.35125,2.41805l-2.35125,2.45813zM65.26055,90.18914l16.39195,16.84617l-2.31117,2.40469h-21.20133v-11.80969zM107.2357,90.32273l13.76015,14.38805l-0.9218,4.72922h-26.55844l-2.35125,-2.41805zM51.3,104.79094v4.64906h-4.44867zM40.85297,116.28h10.44703v18.3825zM58.14,116.28h14.6018l-14.6018,15.17625zM82.24031,116.28h8.38969l23.28539,23.94h-54.72zM100.18195,116.28h18.56953l-3.09938,15.92437zM125.72508,116.28h4.42195l-6.71977,11.82305z"/></g></g><path d="M85.99827,171.49827c-47.22035,0 -85.5,-38.27965 -85.5,-85.5v0c0,-47.22035 38.27965,-85.5 85.5,-85.5v0c47.22035,0 85.5,38.27965 85.5,85.5v0c0,47.22035 -38.27965,85.5 -85.5,85.5z" fill="none"/><path d="M85.99827,168.07827c-45.33153,0 -82.08,-36.74847 -82.08,-82.08v0c0,-45.33153 36.74847,-82.08 82.08,-82.08h0c45.33153,0 82.08,36.74847 82.08,82.08v0c0,45.33153 -36.74847,82.08 -82.08,82.08z" fill="none"/><path d="M0.49827,171.49827v-171h171v171z" fill="none"/><path d="M3.91827,168.07827v-164.16h164.16v164.16z" fill="none"/><path d="M85.99827,171.49827c-47.22035,0 -85.5,-38.27965 -85.5,-85.5v0c0,-47.22035 38.27965,-85.5 85.5,-85.5v0c47.22035,0 85.5,38.27965 85.5,85.5v0c0,47.22035 -38.27965,85.5 -85.5,85.5z" fill="none"/><path d="M85.99827,168.07827c-45.33153,0 -82.08,-36.74847 -82.08,-82.08v0c0,-45.33153 36.74847,-82.08 82.08,-82.08h0c45.33153,0 82.08,36.74847 82.08,82.08v0c0,45.33153 -36.74847,82.08 -82.08,82.08z" fill="none"/></g></svg>
